<svg width="1293" height="452" viewBox="0 0 1293 452" fill="none" xmlns="http://www.w3.org/2000/svg">
<rect width="1293" height="452" rx="25" fill="white"/>
<path d="M292.88 16.28C292.71 17.1 292.45 23.49 292.28 30.6C292.11 37.71 291.91 45.22 291.75 47.33C291.59 49.44 291.37 54.9 291.21 59.43C290.51 86.16 290.21 93.43 289.7 94.03C289.19 94.63 285.99 94.7 276.21 94.7C269.11 94.7 262.98 94.5 262.6 94.29C261.96 93.88 258.36 86.72 252.5 74.11C249.5 67.77 242.06 52.17 239.91 47.79C239.268 46.3345 238.437 44.9695 237.44 43.73C236.58 43.06 236.31 43.21 229.38 49.13C227.38 50.93 219.7 57.27 212.44 63.29C200.5 73.18 189.53 82.29 188.03 83.63C187.7 83.94 186.58 84.82 185.55 85.63C184.52 86.44 182.11 88.41 180.18 90.06C178.25 91.71 174.59 94.69 172.06 96.8C163.24 104.06 155.71 110.35 155.44 110.66C155.28 110.81 150.44 114.88 144.69 119.66C138.94 124.44 133.13 129.28 131.79 130.42C130.45 131.56 128.34 133.35 127.22 134.33C126.1 135.31 123.72 137.27 122.05 138.71C120.38 140.15 116.95 143.03 114.31 145.14C111.67 147.25 106.73 151.43 103.31 154.41C99.89 157.39 95.41 161.21 93.31 162.86C91.21 164.51 89.31 166.2 89.01 166.51C88.71 166.82 85.35 169.76 81.48 172.95C77.61 176.14 73.63 179.54 72.61 180.42C71.59 181.3 69.28 183.3 67.5 184.84C65.72 186.38 64.17 187.68 64.01 187.84C63.85 188 61.69 189.84 59.17 191.96C56.65 194.08 54.49 195.88 54.33 196.08C54.17 196.28 52.33 197.88 50.08 199.69C40.86 207.37 36.4 212.26 44 206.54C45.78 205.2 50 202.11 53.36 199.64C56.72 197.17 64.36 191.51 70.24 187.08L85.28 175.9C87.64 174.21 91.78 171.12 94.42 169.11C97.06 167.1 101.57 163.7 104.42 161.59C111.63 156.29 119.26 150.52 133.13 140.02C139.64 135.02 148.94 128.02 153.83 124.36C158.72 120.7 164.32 116.36 166.42 114.84C168.52 113.32 170.77 111.49 171.58 110.92C172.39 110.35 176.63 107.11 181.04 103.71C185.45 100.31 190.34 96.56 191.96 95.37C193.58 94.18 197.87 90.94 201.47 88.16C205.07 85.38 211.15 80.8 214.91 78C218.67 75.2 223.91 71.15 226.58 69L231.36 65.14L232.28 66.27C233.506 68.4385 234.585 70.6869 235.51 73C239.11 81.24 244.11 92.67 245.24 95C245.83 96.13 246.74 98.35 247.39 99.89C248.04 101.43 249.27 104.22 250.18 106.12L251.8 109.52L257.8 109.83C261.08 109.99 270.65 110.35 279.09 110.66C287.53 110.97 297 111.32 300.09 111.48C304.34 111.68 305.96 111.58 306.28 111.12C306.756 108.347 307.024 105.543 307.08 102.73C307.3 98.45 307.78 90.78 308.08 85.73C308.78 74.97 308.99 71.26 309.08 65.73C309.13 60.58 309.94 60.17 313.08 63.62C314.31 64.96 316.41 67.28 317.75 68.72C321.75 73.1 322.92 74.38 327.54 79.64C329.96 82.42 332.49 85.25 333.13 85.97L337.76 91.12C339.69 93.23 346.31 100.64 352.49 107.54C358.67 114.44 365.07 121.65 366.63 123.54C368.19 125.43 372.01 129.61 374.96 132.86C377.91 136.11 381.26 139.7 382.28 140.86C385.4 144.46 392.65 152.65 393.03 152.86C393.19 153.01 394.75 154.71 396.53 156.72C398.31 158.73 400.02 160.53 400.34 160.84C400.66 161.15 401.74 162.38 402.82 163.67C403.9 164.96 406.15 167.53 407.87 169.39C409.59 171.25 412.12 174.02 413.46 175.57C415.56 177.93 420.13 182.98 420.99 183.75C421.15 183.91 423.3 186.33 425.83 189.16C428.36 191.99 432.77 196.93 435.67 200.16L440.99 205.98L440.13 211.23C439.7 214.11 438.68 220.86 437.93 226.23C437.18 231.6 436.21 238.33 435.78 241.17C434.34 250.72 434 253 433.16 259C432.67 262.24 432.08 266.42 431.81 268.27C431.54 270.12 431.17 272.65 431.01 273.93C430.85 275.21 430.47 277.64 430.2 279.34C429.93 281.04 429.2 286.24 428.48 290.87L427.24 299.32L420 305.77C416 309.32 409 315.5 404.4 319.46C399.8 323.42 394.78 327.86 393.16 329.3C391.54 330.74 388.54 333.37 386.55 335.07L382.95 338.26L380.37 337.18C378.97 336.61 375.15 334.76 371.87 333.18C368.59 331.6 351.22 323 333.15 314.31C315.08 305.62 300 298.25 299.54 298C299.08 297.75 294.65 295.63 289.6 293.21C284.55 290.79 279.27 288.32 277.77 287.55C261.58 279.62 235.83 267.67 234.77 267.67C232.909 268.155 231.132 268.921 229.5 269.94C227.35 271.18 222.18 274.11 218.04 276.43C213.9 278.75 208.47 281.89 205.95 283.38C203.43 284.87 197.13 288.43 191.95 291.31C186.77 294.19 181.95 297.02 181.19 297.49C179.79 298.36 148.39 316.49 125.92 329.31C118.92 333.31 112.1 337.31 110.76 338.11C107.05 340.53 103.23 342.29 102.53 342.03C101.869 341.562 101.377 340.891 101.13 340.12C100.38 338.48 98.13 333.79 93.82 325.12C92.58 322.54 90.82 319.12 90.05 317.39C89.28 315.66 86.94 311 85 307C83.06 303 80.81 298.56 80.16 297.22C79.51 295.88 77.16 291.09 74.84 286.56C72.52 282.03 69.41 275.85 68 272.86C49.83 236.3 40.26 217.86 40 218.86C39.84 219.48 47.69 239.04 51.62 247.86C51.89 248.43 52.53 249.92 53.01 251.21C54.2 254.14 55.38 256.82 56.01 258.16C56.28 258.72 57.68 262.07 59.18 265.62C60.68 269.17 63.92 277.06 66.5 283.13C69.08 289.2 72.2 296.62 73.5 299.61C75.75 305.02 81.5 318.56 82.37 320.46C82.64 321.03 83.71 323.55 84.79 326.13C85.87 328.71 87.21 331.79 87.79 333.08C88.37 334.37 90.63 339.72 92.95 345.02C95.27 350.32 97.36 355.12 97.73 355.58C98.38 356.4 98.81 356.25 103.43 353.93C106.23 352.59 109.35 351 110.37 350.43C111.39 349.86 114.08 348.43 116.28 347.34C118.48 346.25 122.14 344.34 124.35 343.12C126.56 341.9 130.35 339.98 132.68 338.74C135.01 337.5 142.58 333.59 149.35 329.99C156.12 326.39 163.65 322.47 166.02 321.24C168.39 320.01 172.74 317.79 175.7 316.24C187.85 309.85 191.45 307.95 194.78 306.24C201.67 302.69 204.78 301.04 206.72 299.8C207.85 299.19 208.87 298.62 208.98 298.62C209.09 298.62 214.63 295.74 224.63 290.38C226.4 289.38 229.52 287.75 231.56 286.72L235.33 284.82L240.43 287.39C243.28 288.84 248.43 291.46 251.83 293.26C255.23 295.06 260.01 297.49 262.32 298.67C264.63 299.85 268.32 301.67 270.32 302.74L278.12 306.74C280.32 307.88 285.43 310.45 289.41 312.51C293.39 314.57 298.71 317.3 301.24 318.59C307.47 321.73 322.15 329.2 327.05 331.72C329.25 332.85 333.77 335.12 336.99 336.72C342.99 339.72 358.99 347.79 366.3 351.55C379.52 358.35 383.88 360.46 385.01 360.77C385.87 360.98 386.89 360.51 388.77 359.07C389.836 358.266 390.861 357.408 391.84 356.5C392.16 356.14 397.11 351.91 402.84 347.02C408.57 342.13 415.26 336.47 417.63 334.41C420 332.35 423 329.77 424.35 328.69C425.7 327.61 428 325.6 429.45 324.31C436.45 318.13 440.96 314.31 443.54 312.37C444.761 311.513 445.804 310.426 446.61 309.17C446.77 308.61 447.9 301.76 449.08 293.98C452.58 270.87 457.08 241.62 457.9 235.8C458.38 232.8 458.97 228.64 459.3 226.53C459.63 224.42 460.53 217.93 461.45 212.11C462.37 206.29 463 201 463 200.41C463 199.28 462.57 198.77 455.2 190.79C452.84 188.21 449.56 184.61 447.94 182.79C446.32 180.97 444.07 178.42 442.84 177.13C441.61 175.84 439.34 173.27 437.67 171.47C436 169.67 432.84 166.16 430.67 163.74C428.5 161.32 423.47 155.74 419.54 151.38C415.61 147.02 410.83 141.75 409 139.8C404.86 135.32 384.7 113.33 376.74 104.53C369.74 96.8 364.11 90.67 359.54 85.73C357.71 83.73 354.54 80.27 352.54 78.01C350.54 75.75 347.75 72.7 346.41 71.31C343.77 68.53 343.18 67.86 333.82 57.67C330.54 54.12 327.53 50.87 327.05 50.41C326.57 49.95 325.11 48.35 323.77 46.86C321.51 44.28 308.82 30.43 308.18 29.86C308.02 29.71 306.46 27.96 304.74 26C303.02 24.04 301.19 22 300.74 21.62C300.29 21.24 298.74 19.51 297.3 17.87C294.33 14.58 293.31 14.22 292.88 16.28Z" fill="#1C3B1E"/>
<path d="M229.81 141.92C228.719 143.458 227.717 145.057 226.81 146.71C225.81 148.56 224.23 151.19 223.31 152.63C222.569 153.791 221.901 154.996 221.31 156.24C220.83 157.42 220.31 244.24 220.78 245.68C221.05 246.45 221.78 246.6 225.78 246.6C228.78 246.6 230.67 246.4 230.94 246.04C231.37 245.37 231.43 141.1 231 140.74C230.93 140.58 230.34 141.1 229.81 141.92Z" fill="#1C3B1E"/>
<path d="M162.81 146.61L160.81 146.76L160.97 151.76L161.13 156.76L179.13 157.02C189.03 157.17 197.2 157.38 197.31 157.43C197.68 157.74 197.31 158.61 196.45 159.43C195.59 160.25 188.76 168.8 179.13 181.11C177.2 183.58 174.51 186.98 173.13 188.67C172.104 189.746 171.236 190.961 170.55 192.28C171.047 193.222 171.7 194.074 172.48 194.8C174.48 196.91 174.48 196.91 179.69 195.63C181.835 195.223 184.024 195.102 186.2 195.27C190.94 195.505 195.466 197.321 199.054 200.427C202.643 203.534 205.088 207.752 206 212.41C207.29 218.41 204.71 225.59 199.66 230.41C195.611 234.129 190.303 236.177 184.806 236.14C179.308 236.103 174.028 233.984 170.03 230.21C167.56 227.94 164.03 222.33 164.03 220.73C164.03 219.45 162.79 219.39 160.26 220.58C158.92 221.2 156.98 222.02 155.96 222.43C152.9 223.62 152.9 223.51 156.18 230.16C158.76 235.41 164.62 240.76 171.18 243.8C176.07 246.12 176.67 246.22 181.88 246.48C189.3 246.84 193.66 246.12 199.14 243.59C205.47 240.667 210.651 235.725 213.87 229.54C214.81 227.894 215.568 226.15 216.13 224.34C216.308 223.052 216.579 221.779 216.94 220.53C219.25 212.18 214.73 199.67 206.88 192.77C203.01 189.37 195.11 185.36 192.21 185.36C190.65 185.36 191.45 183.3 194.62 179.36C201.24 171.18 204.2 167.47 209.95 160.16C213.17 156.04 216.72 151.61 217.95 150.22C219.18 148.83 219.95 147.49 219.77 147.08C219.51 146.51 214.88 146.36 192.14 146.41C177.17 146.4 163.94 146.5 162.81 146.61Z" fill="#1C3B1E"/>
<path d="M242 147.07C241.67 147.38 241.51 149.7 241.62 152.22L241.78 156.75L259.53 156.9C269.26 156.96 277.43 157.21 277.7 157.47C277.97 157.73 274.37 162.62 269.7 168.39C265.03 174.16 259.7 180.95 257.7 183.47C255.7 185.99 253.45 188.83 252.65 189.7C251.966 190.359 251.449 191.172 251.14 192.07C251.585 193.107 252.223 194.05 253.02 194.85L254.85 196.91L258.51 195.99C265.44 194.29 271.09 195.06 276.68 198.46C280.101 200.513 282.85 203.519 284.59 207.11C285.98 209.79 286.31 211.02 286.52 214.83C286.79 219.42 286.74 219.52 284.21 225.23C282.92 228.23 278.67 232.08 274.64 233.99C270.687 235.846 266.269 236.475 261.956 235.796C257.642 235.116 253.631 233.16 250.44 230.18C248.29 228.18 245.07 223.12 244.44 220.7C244.23 219.93 243.85 219.31 243.58 219.31C242.67 219.31 234.58 223.31 234.17 224C233.96 224.31 234.87 226.68 236.17 229.3C237.708 232.389 239.784 235.179 242.3 237.54C243.746 239.02 245.33 240.359 247.03 241.54C247.952 241.97 248.85 242.451 249.72 242.98C251.358 243.859 253.067 244.599 254.83 245.19C259.56 246.79 270.69 246.94 275.26 245.4C281.169 243.526 286.45 240.067 290.53 235.4C297.03 227.4 299.29 217.63 296.71 208.26C293.92 197.96 286.28 189.62 276.87 186.69C271.76 185.09 271.39 184.93 271.71 184.06C272.03 183.19 277.14 176.75 290.58 159.96C301.28 146.68 300.74 147.35 300.31 146.88C299.7 146.19 242.49 146.4 242 147.07Z" fill="#1C3B1E"/>
<path d="M325 147.74C323.347 148.187 321.729 148.755 320.16 149.44C319.3 149.85 317.79 150.62 316.77 151.09C314.55 152.582 312.48 154.287 310.59 156.18C305.59 161.02 303.17 165.3 301.82 171.53C300.82 176.11 301.12 176.78 304.46 177.6C305.46 177.86 307.31 178.32 308.6 178.69C310.1 179.1 311.12 179.1 311.45 178.79C312.033 177.503 312.394 176.127 312.52 174.72C313.97 165.86 321.12 159.02 330.59 157.52C334.78 156.85 337.85 157.32 342.31 159.32C349.62 162.67 354.25 168.75 354.78 175.75C354.975 177.936 354.851 180.14 354.41 182.29C353.22 187.18 351.99 188.88 341.5 200C339.89 201.75 337.36 204.53 335.86 206.18C332.09 210.46 327.95 214.83 327.2 215.45C326.82 215.71 325.05 217.72 323.2 219.83C321.35 221.94 318.04 225.59 315.83 227.96C313.62 230.33 311.21 232.96 310.51 233.83C310.013 234.517 309.454 235.156 308.84 235.74C307.784 236.683 306.783 237.684 305.84 238.74C303.59 241.22 303.37 241.68 303.48 243.89L303.59 246.37L333.7 246.52C350.26 246.57 364.34 246.52 365.04 246.37C366.17 246.11 366.23 245.85 366.23 241.47C366.23 238.85 366.01 236.74 365.69 236.58C365.37 236.42 356.12 236.17 345.1 236.17C325.79 236.07 325.1 236.02 324.93 235.09C324.874 234.807 324.894 234.514 324.989 234.242C325.084 233.969 325.25 233.727 325.47 233.54C325.9 233.23 328.47 230.54 331.28 227.42C334.09 224.3 337.84 220.31 339.61 218.35C341.38 216.39 344.45 213.15 346.39 211.04C360 196.4 361.7 194.29 363.74 189.5C368.53 178.17 365.74 164.99 356.65 155.82C354.33 153.51 348.42 149.7 345.78 148.82C338.79 146.45 330.94 146 325 147.74Z" fill="#1C3B1E"/>
<path d="M427.24 363.69C425.79 364.05 422.62 364.78 420.24 365.24C404.06 368.59 399.6 369.67 385.03 373.84C374.92 376.72 366.53 379.76 365.56 380.84C365.08 381.41 365.08 382.03 365.62 383.47C368.25 390.57 377.28 407.36 385.24 419.77C387.18 422.86 388.79 425.48 388.79 425.64C389.258 426.424 389.797 427.164 390.4 427.85C391.047 428.572 391.608 429.367 392.07 430.22C392.12 430.99 397.07 437.79 397.71 438C398.79 438.36 413.9 408.18 420.51 392.58C424.88 382.33 427 377 427 376.41C427.062 375.88 427.243 375.37 427.53 374.92C429.227 371.283 430.664 367.53 431.83 363.69C431.81 362.82 430.85 362.82 427.24 363.69ZM405.9 382.28C406.06 382.44 405.9 383.06 405.58 383.72C403.91 386.87 398.96 397.72 397.4 401.59C396.717 403.486 395.797 405.287 394.66 406.95C393.75 407.95 393.66 407.87 390.9 404.89C387.02 400.77 370.03 384.65 368.53 383.72C365.46 381.82 366.59 381.67 386.53 381.87C397 382 405.79 382.13 405.9 382.28Z" fill="#1C3B1E"/>
<path d="M543.51 121.59H519.35V200.65H514.89V121.59H490.84V117.14H543.51V121.59Z" fill="#1C3B1E"/>
<path d="M595.88 161.12H551.78V200.65H547.33V117.14H551.78V156.67H595.88V117.14H600.33V200.65H595.88V161.12Z" fill="#1C3B1E"/>
<path d="M653.6 117.14H658.06V176.38C657.931 182.733 655.317 188.782 650.778 193.229C646.24 197.676 640.139 200.167 633.785 200.167C627.431 200.167 621.33 197.676 616.792 193.229C612.253 188.782 609.639 182.733 609.51 176.38V117.14H614V176.38C614 181.637 616.088 186.678 619.805 190.395C623.522 194.112 628.563 196.2 633.82 196.2C639.077 196.2 644.118 194.112 647.835 190.395C651.552 186.678 653.64 181.637 653.64 176.38L653.6 117.14Z" fill="#1C3B1E"/>
<path d="M667.23 117.14H671.68L726.58 193V117.14H731V200.65H726.54L671.64 124.93V200.65H667.19L667.23 117.14Z" fill="#1C3B1E"/>
<path d="M740.43 117.14H758.58C764.118 117.054 769.617 118.071 774.758 120.131C779.899 122.191 784.579 125.253 788.526 129.139C792.472 133.024 795.606 137.656 797.745 142.765C799.885 147.874 800.986 153.357 800.986 158.895C800.986 164.433 799.885 169.916 797.745 175.025C795.606 180.134 792.472 184.766 788.526 188.651C784.579 192.537 779.899 195.599 774.758 197.659C769.617 199.719 764.118 200.736 758.58 200.65H740.43V117.14ZM758.58 121.59H744.88V196.2H758.58C763.53 196.281 768.447 195.376 773.044 193.538C777.641 191.699 781.827 188.964 785.356 185.492C788.886 182.02 791.689 177.88 793.602 173.314C795.515 168.748 796.501 163.846 796.501 158.895C796.501 153.944 795.515 149.042 793.602 144.476C791.689 139.91 788.886 135.77 785.356 132.298C781.827 128.826 777.641 126.091 773.044 124.252C768.447 122.414 763.53 121.509 758.58 121.59Z" fill="#1C3B1E"/>
<path d="M807 117.14H855.4V121.59H811.4V156.67H846.47V161.12H811.42V196.2H855.42V200.65H807V117.14Z" fill="#1C3B1E"/>
<path d="M882.05 181.28C880.535 179.695 878.721 178.425 876.713 177.544C874.705 176.664 872.542 176.19 870.35 176.15H863.67V200.65H859.22V117.14H878.22C885.668 117.138 892.842 119.954 898.3 125.022C903.758 130.091 907.097 137.036 907.646 144.464C908.196 151.892 905.915 159.253 901.262 165.069C896.609 170.885 889.928 174.726 882.56 175.82L885.12 178.05L907.73 200.65H901.38L882.05 181.28ZM863.67 171.7H878.26C881.592 171.767 884.905 171.168 888.003 169.939C891.101 168.709 893.923 166.874 896.303 164.541C898.683 162.208 900.574 159.424 901.865 156.351C903.156 153.278 903.821 149.978 903.821 146.645C903.821 143.312 903.156 140.012 901.865 136.939C900.574 133.867 898.683 131.082 896.303 128.749C893.923 126.416 891.101 124.581 888.003 123.352C884.905 122.122 881.592 121.523 878.26 121.59H863.67V171.7Z" fill="#1C3B1E"/>
<path d="M941.17 117.14H959.32C964.858 117.054 970.357 118.071 975.498 120.131C980.639 122.191 985.319 125.253 989.266 129.139C993.212 133.024 996.346 137.656 998.485 142.765C1000.62 147.874 1001.73 153.357 1001.73 158.895C1001.73 164.433 1000.62 169.916 998.485 175.025C996.346 180.134 993.212 184.766 989.266 188.651C985.319 192.537 980.639 195.599 975.498 197.659C970.357 199.719 964.858 200.736 959.32 200.65H941.17V117.14ZM959.32 121.59H945.63V196.2H959.32C964.27 196.281 969.187 195.376 973.784 193.538C978.381 191.699 982.567 188.964 986.096 185.492C989.626 182.02 992.429 177.88 994.342 173.314C996.255 168.748 997.241 163.846 997.241 158.895C997.241 153.944 996.255 149.042 994.342 144.476C992.429 139.91 989.626 135.77 986.096 132.298C982.567 128.826 978.381 126.091 973.784 124.252C969.187 122.414 964.27 121.509 959.32 121.59V121.59Z" fill="#1C3B1E"/>
<path d="M1047 117.14C1055.26 117.14 1063.33 119.589 1070.2 124.179C1077.07 128.768 1082.42 135.29 1085.58 142.921C1088.74 150.553 1089.57 158.95 1087.96 167.051C1086.34 175.152 1082.37 182.592 1076.53 188.432C1070.68 194.272 1063.24 198.249 1055.14 199.859C1047.04 201.469 1038.64 200.641 1031.01 197.478C1023.38 194.316 1016.86 188.962 1012.27 182.093C1007.69 175.225 1005.24 167.15 1005.24 158.89C1005.24 147.816 1009.64 137.197 1017.47 129.368C1025.31 121.538 1035.93 117.14 1047 117.14ZM1047 196.2C1054.38 196.2 1061.59 194.012 1067.73 189.912C1073.86 185.812 1078.65 179.985 1081.47 173.168C1084.29 166.35 1085.03 158.849 1083.59 151.611C1082.15 144.374 1078.6 137.726 1073.38 132.508C1068.16 127.29 1061.52 123.737 1054.28 122.297C1047.04 120.857 1039.54 121.596 1032.72 124.42C1025.9 127.244 1020.08 132.026 1015.98 138.162C1011.88 144.297 1009.69 151.511 1009.69 158.89C1009.73 168.774 1013.67 178.242 1020.66 185.231C1027.65 192.22 1037.12 196.163 1047 196.2Z" fill="#1C3B1E"/>
<path d="M1136.41 133.51L1117 200.65H1112.32L1088.38 117.14H1093.06L1114.66 192.52L1135.04 121.59H1137.6L1158.09 192.52L1179.7 117.14H1184.37L1160.43 200.65H1155.75L1136.41 133.51Z" fill="#1C3B1E"/>
<path d="M1188.1 117.14H1192.56L1247.46 192.97V117.14H1251.91V200.65H1247.46L1192.56 124.93V200.65H1188.1V117.14Z" fill="#1C3B1E"/>
<path d="M534.94 250.76H539.39V310C539.456 313.229 538.876 316.439 537.686 319.442C536.495 322.444 534.718 325.179 532.457 327.486C530.196 329.793 527.498 331.626 524.52 332.877C521.542 334.128 518.345 334.773 515.115 334.773C511.885 334.773 508.688 334.128 505.71 332.877C502.732 331.626 500.034 329.793 497.773 327.486C495.512 325.179 493.735 322.444 492.544 319.442C491.354 316.439 490.774 313.229 490.84 310V250.76H495.29V310C495.406 315.181 497.546 320.11 501.251 323.733C504.957 327.356 509.933 329.385 515.115 329.385C520.297 329.385 525.273 327.356 528.979 323.733C532.684 320.11 534.824 315.181 534.94 310V250.76Z" fill="#1C3B1E"/>
<path d="M548.56 250.76H553L607.9 326.59V250.76H612.35V334.28H607.9L553 258.55V334.28H548.54L548.56 250.76Z" fill="#1C3B1E"/>
<path d="M621.76 250.76H639.91C650.985 250.76 661.607 255.16 669.439 262.991C677.27 270.823 681.67 281.445 681.67 292.52C681.67 303.595 677.27 314.217 669.439 322.049C661.607 329.88 650.985 334.28 639.91 334.28H621.76V250.76ZM639.91 255.21H626.22V329.82H639.91C644.86 329.901 649.777 328.996 654.374 327.158C658.971 325.319 663.157 322.584 666.686 319.112C670.216 315.64 673.019 311.5 674.932 306.934C676.845 302.368 677.831 297.466 677.831 292.515C677.831 287.564 676.845 282.662 674.932 278.096C673.019 273.53 670.216 269.39 666.686 265.918C663.157 262.446 658.971 259.711 654.374 257.872C649.777 256.034 644.86 255.129 639.91 255.21V255.21Z" fill="#1C3B1E"/>
<path d="M688.3 250.76H736.74V255.21H692.74V290.29H727.82V294.74H692.75V329.82H736.75V334.28H688.3V250.76Z" fill="#1C3B1E"/>
<path d="M763.38 314.9C761.866 313.317 760.054 312.049 758.047 311.17C756.041 310.291 753.88 309.819 751.69 309.78H745V334.28H740.54V250.76H759.54C766.989 250.756 774.164 253.57 779.624 258.637C785.084 263.705 788.425 270.65 788.976 278.079C789.527 285.508 787.247 292.87 782.593 298.687C777.94 304.504 771.258 308.346 763.89 309.44L766.45 311.67L789.05 334.28H782.71L763.38 314.9ZM745 305.32H759.58C762.912 305.387 766.225 304.788 769.323 303.559C772.421 302.329 775.243 300.494 777.623 298.161C780.003 295.828 781.894 293.044 783.185 289.971C784.476 286.898 785.141 283.598 785.141 280.265C785.141 276.932 784.476 273.632 783.185 270.559C781.894 267.487 780.003 264.702 777.623 262.369C775.243 260.036 772.421 258.201 769.323 256.972C766.225 255.742 762.912 255.143 759.58 255.21H745V305.32Z" fill="#1C3B1E"/>
</svg>
